<svg width="200" height="205" viewBox="0 0 200 205" fill="none" xmlns="http://www.w3.org/2000/svg">
<path d="M52.1244 8.1406C53.8448 9.8444 55.6573 11.448 57.6733 12.7886C67.9568 19.6284 98.5533 36.086 147.08 29.36C207.713 20.9561 198.818 81.9188 190.093 98.1663C181.368 114.414 149.281 144.198 146.586 159.121C143.891 174.044 155.424 214.804 128.402 202.573C101.381 190.342 85.7715 161.695 50.3042 165.025C14.8369 168.354 -10.2252 152.638 5.47477 124.558C21.1748 96.4778 39.9454 78.3577 15.987 47.0801C-7.30638 16.6723 31.9289 -11.8604 52.1244 8.1406Z" fill="#EBC8C8"/>
<path d="M113.648 39.6428C113.198 39.1901 112.941 38.5811 112.93 37.9431C112.919 37.3051 113.155 36.6876 113.589 36.2195L129.587 18.9519C129.814 18.7074 130.087 18.5111 130.392 18.375C130.696 18.239 131.025 18.1658 131.358 18.16C131.692 18.1543 132.023 18.216 132.332 18.3414C132.641 18.4669 132.921 18.6535 133.156 18.8901L134.537 20.2808C134.772 20.5174 134.957 20.7991 135.08 21.1089C135.203 21.4187 135.262 21.7502 135.254 22.0836C135.246 22.4169 135.171 22.7452 135.033 23.0486C134.894 23.352 134.696 23.6244 134.45 23.8493L117.071 39.7261C116.6 40.1566 115.981 40.3883 115.343 40.3727C114.705 40.3572 114.098 40.0957 113.648 39.6428Z" fill="#A73539"/>
<path d="M103.521 33.7569C103.139 33.5874 102.836 33.2766 102.678 32.8895C102.519 32.5024 102.516 32.069 102.67 31.6797L108.331 17.3206C108.412 17.1173 108.532 16.9322 108.686 16.7766C108.839 16.621 109.023 16.498 109.225 16.4151C109.427 16.3322 109.644 16.291 109.863 16.2941C110.081 16.2972 110.297 16.3445 110.497 16.433L111.672 16.9538C111.872 17.0424 112.052 17.1705 112.201 17.3304C112.35 17.4903 112.465 17.6787 112.54 17.8843C112.614 18.0898 112.646 18.3083 112.634 18.5266C112.622 18.7449 112.566 18.9585 112.469 19.1545L105.633 32.9928C105.447 33.368 105.124 33.657 104.73 33.7994C104.337 33.9419 103.904 33.9266 103.521 33.7569Z" fill="#A73539"/>
<path d="M93.2194 36.1038C91.9146 36.3388 90.6056 35.2192 90.2514 33.5659L83.9721 4.21018C83.5975 2.45584 84.4375 0.787323 85.8216 0.537843L87.7506 0.190642C89.1346 -0.0585582 90.5046 1.21264 90.7646 2.98714L95.1155 32.6899C95.3605 34.3634 94.5242 35.8689 93.2194 36.1038Z" fill="#A73539"/>
<path d="M194.713 63.7307L167.019 60.1607C166.553 60.1109 166.082 60.2045 165.671 60.4289C165.259 60.6534 164.925 60.998 164.714 61.4169L157.35 75.9571L126.525 137.608C126.197 138.259 125.648 138.772 124.977 139.055C124.305 139.338 123.554 139.373 122.859 139.152L39.1889 112.445C38.9582 112.372 38.7132 112.354 38.4742 112.393C38.2352 112.433 38.0089 112.528 37.8141 112.672C37.6193 112.816 37.4615 113.005 37.3536 113.221C37.2457 113.438 37.1908 113.678 37.1935 113.92L37.2319 117.394C37.2366 117.878 37.3936 118.347 37.6805 118.735C37.9674 119.124 38.3697 119.412 38.83 119.559L127.355 147.815C128.342 148.13 129.228 148.7 129.924 149.468C130.619 150.236 131.099 151.174 131.316 152.187L131.345 152.325C132.115 156.555 127.947 160.027 123.839 158.78L26.7683 127.756C26.2703 127.598 25.8414 127.274 25.5525 126.839C25.2636 126.404 25.1319 125.883 25.1794 125.362L32.7764 42.4028C32.8146 41.9751 32.9423 41.5601 33.1512 41.185C33.3602 40.8098 33.6457 40.4828 33.9893 40.2251C34.3328 39.9674 34.7267 39.7849 35.1454 39.6893C35.564 39.5938 35.9981 39.5873 36.4195 39.6704L152.709 62.4194L160.199 47.5341C160.415 47.1134 160.755 46.7692 161.173 46.5479C161.591 46.3267 162.067 46.239 162.537 46.2968L196.45 50.6396C196.75 50.6774 197.041 50.7745 197.304 50.9252C197.567 51.076 197.797 51.2774 197.982 51.5179C198.167 51.7583 198.302 52.033 198.38 52.3261C198.458 52.6191 198.477 52.9247 198.435 53.2251L197.279 61.755C197.199 62.3564 196.884 62.9017 196.403 63.2719C195.922 63.642 195.315 63.8069 194.713 63.7307Z" fill="#A73539"/>
<path d="M37.4648 98.2413L46.9406 101.266L56.0301 55.1741L41.483 52.9404L37.4648 98.2413Z" fill="#EBC8C8"/>
<path d="M111.814 121.972L121.29 124.997L145.796 73.3842L135.358 70.856L111.814 121.972Z" fill="#EBC8C8"/>
<path d="M75.3691 110.339L84.1161 113.131L102.852 64.4965L88.5377 61.5339L75.3691 110.339Z" fill="#EBC8C8"/>
<path d="M64.2823 57.0044L78.5968 59.9669L65.8936 107.315L56.418 104.29L64.2823 57.0044Z" fill="#EBC8C8"/>
<path d="M126.378 68.793L112.064 65.8303L94.3203 116.388L103.067 119.18L126.378 68.793Z" fill="#EBC8C8"/>
<path d="M39.2937 157.708C45.421 157.708 50.3881 152.741 50.3881 146.613C50.3881 140.486 45.421 135.519 39.2937 135.519C33.1664 135.519 28.1992 140.486 28.1992 146.613C28.1992 152.741 33.1664 157.708 39.2937 157.708Z" fill="#C55357"/>
<path d="M108.54 179.81C114.667 179.81 119.634 174.843 119.634 168.715C119.634 162.588 114.667 157.621 108.54 157.621C102.412 157.621 97.4453 162.588 97.4453 168.715C97.4453 174.843 102.412 179.81 108.54 179.81Z" fill="#C55357"/>
<path d="M199.695 50.1805L170.467 46.5214C170.305 46.5011 170.157 46.616 170.137 46.778L168.366 60.9285C168.345 61.0905 168.46 61.2383 168.622 61.2586L197.85 64.9177C198.012 64.938 198.16 64.8231 198.18 64.6611L199.951 50.5106C199.972 50.3486 199.857 50.2008 199.695 50.1805Z" fill="#C55357"/>
</svg>
