<svg width="24" height="25" viewBox="0 0 24 25" fill="none" xmlns="http://www.w3.org/2000/svg">
<path d="M8.5 15.05C8.5 16.97 10.08 18.55 12 18.55C13.92 18.55 15.5 16.97 15.5 15.05" stroke="white" stroke-width="1.5" stroke-miterlimit="10" stroke-linecap="round" stroke-linejoin="round"/>
<path d="M8.81043 2.80005L5.19043 6.43005" stroke="white" stroke-width="1.5" stroke-miterlimit="10" stroke-linecap="round" stroke-linejoin="round"/>
<path d="M15.1904 2.80005L18.8104 6.43005" stroke="white" stroke-width="1.5" stroke-miterlimit="10" stroke-linecap="round" stroke-linejoin="round"/>
<path d="M2 8.65002C2 6.80002 2.99 6.65002 4.22 6.65002H19.78C21.01 6.65002 22 6.80002 22 8.65002C22 10.8 21.01 10.65 19.78 10.65H4.22C2.99 10.65 2 10.8 2 8.65002Z" stroke="white" stroke-width="1.5"/>
<path d="M3.5 10.8L4.91 19.44C5.23 21.38 6 22.8 8.86 22.8H14.89C18 22.8 18.46 21.44 18.82 19.56L20.5 10.8" stroke="white" stroke-width="1.5" stroke-linecap="round"/>
</svg>
