<svg width="68" height="58" viewBox="0 0 68 58" fill="none" xmlns="http://www.w3.org/2000/svg">
<path d="M62.875 0.78125H5.125C3.90666 0.78125 2.73822 1.26523 1.87673 2.12673C1.01523 2.98822 0.53125 4.15666 0.53125 5.375V52.625C0.53125 53.8433 1.01523 55.0118 1.87673 55.8733C2.73822 56.7348 3.90666 57.2188 5.125 57.2188H62.875C64.0933 57.2188 65.2618 56.7348 66.1233 55.8733C66.9848 55.0118 67.4688 53.8433 67.4688 52.625V5.375C67.4688 4.15666 66.9848 2.98822 66.1233 2.12673C65.2618 1.26523 64.0933 0.78125 62.875 0.78125ZM5.125 4.71875H62.875C63.049 4.71875 63.216 4.78789 63.339 4.91096C63.4621 5.03403 63.5312 5.20095 63.5312 5.375V40.6714L53.8614 31.0016C53.4348 30.5749 52.9284 30.2365 52.371 30.0056C51.8137 29.7748 51.2163 29.6559 50.613 29.6559C50.0097 29.6559 49.4123 29.7748 48.8549 30.0056C48.2975 30.2365 47.7911 30.5749 47.3645 31.0016L40.3361 38.03L25.4359 23.1266C25.0094 22.6999 24.5029 22.3615 23.9456 22.1306C23.3882 21.8998 22.7908 21.7809 22.1875 21.7809C21.5842 21.7809 20.9868 21.8998 20.4294 22.1306C19.8721 22.3615 19.3656 22.6999 18.9391 23.1266L4.46875 37.5969V5.375C4.46875 5.20095 4.53789 5.03403 4.66096 4.91096C4.78403 4.78789 4.95095 4.71875 5.125 4.71875ZM4.46875 52.625V43.1652L21.7216 25.9123C21.7826 25.8508 21.8552 25.802 21.9351 25.7687C22.0151 25.7354 22.1009 25.7182 22.1875 25.7182C22.2741 25.7182 22.3599 25.7354 22.4399 25.7687C22.5198 25.802 22.5924 25.8508 22.6534 25.9123L50.0223 53.2812H5.125C4.95095 53.2812 4.78403 53.2121 4.66096 53.089C4.53789 52.966 4.46875 52.799 4.46875 52.625ZM62.875 53.2812H55.5906L43.1219 40.8125L50.147 33.7841C50.208 33.723 50.2804 33.6746 50.36 33.6416C50.4397 33.6086 50.5251 33.5916 50.6113 33.5916C50.6976 33.5916 50.783 33.6086 50.8626 33.6416C50.9423 33.6746 51.0147 33.723 51.0756 33.7841L63.5444 46.2528V52.625C63.5444 52.7123 63.527 52.7987 63.4932 52.8792C63.4594 52.9597 63.4099 53.0326 63.3475 53.0937C63.2852 53.1549 63.2113 53.2029 63.1302 53.2351C63.049 53.2673 62.9623 53.283 62.875 53.2812ZM39.9062 19.8125C39.9062 19.1635 40.0987 18.5291 40.4592 17.9895C40.8198 17.4499 41.3323 17.0294 41.9318 16.781C42.5314 16.5327 43.1911 16.4677 43.8276 16.5943C44.4641 16.7209 45.0488 17.0334 45.5077 17.4923C45.9666 17.9512 46.2791 18.5359 46.4057 19.1724C46.5323 19.8089 46.4673 20.4686 46.219 21.0682C45.9706 21.6678 45.5501 22.1802 45.0105 22.5408C44.4709 22.9013 43.8365 23.0938 43.1875 23.0938C42.3173 23.0938 41.4827 22.748 40.8673 22.1327C40.2519 21.5173 39.9062 20.6827 39.9062 19.8125Z" fill="black"/>
</svg>
