<svg width="22" height="18" viewBox="0 0 22 18" fill="none" xmlns="http://www.w3.org/2000/svg">
<path d="M19.7751 1.68465C18.791 0.702635 17.458 0.150489 16.0679 0.149084C14.6777 0.147678 13.3435 0.697126 12.3576 1.67715L11.0001 2.9409L9.64255 1.67715C8.65732 0.693154 7.32154 0.140846 5.92908 0.141725C4.53663 0.142604 3.20155 0.696599 2.21755 1.68184C1.23356 2.66707 0.681251 4.00285 0.68213 5.39531C0.683009 6.78777 1.237 8.12284 2.22224 9.10684L10.5997 17.6062C10.6521 17.6592 10.7144 17.7013 10.7831 17.73C10.8518 17.7588 10.9256 17.7735 11.0001 17.7735C11.0745 17.7735 11.1483 17.7588 11.217 17.73C11.2857 17.7013 11.348 17.6592 11.4004 17.6062L19.7751 9.11059C20.2628 8.62305 20.6496 8.04422 20.9136 7.40714C21.1775 6.77005 21.3134 6.08721 21.3134 5.39762C21.3134 4.70802 21.1775 4.02518 20.9136 3.3881C20.6496 2.75102 20.2628 2.17218 19.7751 1.68465ZM18.9763 8.31746L11.0001 16.41L3.02099 8.31465C2.25191 7.54018 1.82111 6.49246 1.82297 5.401C1.82483 4.30953 2.2592 3.26329 3.03092 2.49145C3.80264 1.7196 4.84881 1.28507 5.94027 1.28304C7.03174 1.281 8.07952 1.71163 8.85412 2.48059C8.85867 2.48545 8.86369 2.48985 8.86912 2.49371L10.6166 4.12121C10.7207 4.21822 10.8577 4.27215 11.0001 4.27215C11.1424 4.27215 11.2794 4.21822 11.3835 4.12121L13.131 2.49277C13.1364 2.48891 13.1414 2.48451 13.146 2.47965C13.5288 2.09461 13.9838 1.78891 14.4849 1.5801C14.9861 1.37129 15.5236 1.26346 16.0665 1.26281C16.6094 1.26216 17.1471 1.36869 17.6488 1.5763C18.1505 1.78391 18.6062 2.08851 18.9899 2.47263C19.3736 2.85676 19.6777 3.31284 19.8847 3.81474C20.0918 4.31664 20.1977 4.85447 20.1964 5.3974C20.1952 5.94032 20.0867 6.47766 19.8774 6.97859C19.668 7.47952 19.3618 7.93419 18.9763 8.31652V8.31746Z" fill="white"/>
</svg>
