<svg width="20" height="20" viewBox="0 0 20 20" fill="none" xmlns="http://www.w3.org/2000/svg">
<path d="M2.43985 7.71287e-06H2.24141C1.00469 0.00235151 0.00240774 1.00469 7.73582e-06 2.24221V2.44065C-0.00155466 3.03675 0.233608 3.60861 0.653908 4.03127C1.07423 4.45393 1.64531 4.69143 2.24141 4.69299H2.43985C3.03829 4.69455 3.61173 4.45783 4.03517 4.03517C4.45783 3.61251 4.69455 3.03829 4.69299 2.44063V2.24219C4.69142 1.64609 4.45315 1.07501 4.03127 0.653908C3.60861 0.233588 3.03593 -0.00155229 2.43985 7.71287e-06ZM4.05313 2.44061C4.05469 2.86873 3.88594 3.28045 3.58281 3.58279C3.27969 3.88591 2.86875 4.05545 2.43985 4.05311H2.24141C1.81485 4.05233 1.40625 3.88201 1.10547 3.57967C0.805468 3.27655 0.637508 2.86717 0.639848 2.44061V2.24217C0.640629 1.35779 1.35781 0.64139 2.24141 0.63983H2.43985C2.86641 0.637486 3.27657 0.805454 3.57891 1.10623C3.88203 1.40623 4.05235 1.81561 4.05313 2.24217V2.44061Z" fill="#43464E"/>
<path d="M9.81157 6.10352e-05H9.59751C8.36313 0.00631103 7.36471 1.0071 7.36231 2.24226V2.4407C7.35919 3.67898 8.35919 4.6867 9.59751 4.6931H9.81157C11.0499 4.68685 12.0498 3.67904 12.0468 2.4407V2.24226C12.0444 1.0071 11.046 0.00626103 9.81157 6.10352e-05V6.10352e-05ZM11.4139 2.44066H11.4131C11.4155 2.86722 11.2475 3.2766 10.9467 3.57972C10.6467 3.88206 10.2374 4.05238 9.81157 4.05316H9.59751C8.71391 4.0516 7.99673 3.3352 7.99595 2.45082V2.25238C7.99361 1.82582 8.16158 1.41644 8.46235 1.11332C8.76235 0.810983 9.17173 0.640663 9.59751 0.639883H9.81157C10.6952 0.641445 11.4124 1.35784 11.4131 2.24222L11.4139 2.44066Z" fill="#43464E"/>
<path d="M17.1693 7.7368e-06H16.9709C16.3748 -0.00155476 15.8021 0.233608 15.3795 0.653908C14.9576 1.07501 14.7193 1.64609 14.7178 2.24219V2.44063C14.7162 3.03829 14.9529 3.61251 15.3756 4.03517C15.799 4.45783 16.3725 4.69455 16.9709 4.69299H17.1694C17.7655 4.69142 18.3365 4.45393 18.7569 4.03127C19.1772 3.60861 19.4123 3.03673 19.4108 2.44065V2.24221C19.4084 1.00471 18.4061 0.00240774 17.1694 7.7368e-06H17.1693ZM18.7709 2.44061C18.7732 2.86717 18.6053 3.27655 18.3053 3.57967C18.0045 3.88201 17.5959 4.05233 17.1693 4.05311H16.9709C16.542 4.05545 16.1311 3.88592 15.8279 3.58279C15.5248 3.28045 15.3561 2.86873 15.3576 2.44061V2.24217C15.3584 1.81561 15.5287 1.40623 15.8318 1.10623C16.1342 0.80545 16.5443 0.63747 16.9709 0.63983H17.1693C18.0529 0.641392 18.7701 1.35779 18.7709 2.24217V2.44061Z" fill="#43464E"/>
<path d="M2.43984 7.65771H2.2414C1.0039 7.66006 0.0008 8.66395 0 9.90151V10.1C0.0023438 11.3375 1.00468 12.3398 2.2414 12.3422H2.43984C3.03672 12.3437 3.60938 12.1086 4.03202 11.6875C4.45468 11.2664 4.69218 10.6945 4.69296 10.0984V9.89997C4.6914 9.30387 4.45312 8.73279 4.03124 8.31169C3.60858 7.89137 3.03592 7.65623 2.43984 7.65779V7.65771ZM4.05312 10.0983C4.05156 10.9819 3.33516 11.6991 2.45078 11.6999H2.25234C1.82578 11.7022 1.41562 11.5343 1.11328 11.2343C0.81094 10.9335 0.64062 10.5249 0.63984 10.0983V9.89988C0.640621 9.0155 1.3578 8.2991 2.2414 8.29754H2.43984C2.86718 8.29519 3.27734 8.46316 3.57968 8.76472C3.8828 9.0655 4.05312 9.47488 4.05312 9.90144V10.0983Z" fill="#43464E"/>
<path d="M9.81254 7.65771H9.59848C8.36332 7.66396 7.36488 8.66631 7.36328 9.90151V10.1C7.36563 11.3351 8.36406 12.336 9.59848 12.3422H9.81254C11.0477 12.3359 12.0461 11.3336 12.0477 10.0984V9.89991C12.0454 8.66475 11.047 7.66391 9.81254 7.65771ZM11.4149 10.0983H11.4141C11.4141 10.9835 10.6969 11.7007 9.81254 11.7022H9.59848C8.71488 11.7007 7.9977 10.9843 7.99692 10.0999V9.90144C7.99692 9.01628 8.7141 8.2991 9.59848 8.29754H9.81254C10.6961 8.2991 11.4133 9.0155 11.4141 9.89988L11.4149 10.0983Z" fill="#43464E"/>
<path d="M17.1693 7.65792H16.9709C16.374 7.65635 15.8014 7.89152 15.3787 8.3126C14.9561 8.7337 14.7186 9.30556 14.7178 9.90166V10.1001C14.7193 10.6962 14.9576 11.2673 15.3795 11.6884C15.8022 12.1087 16.3748 12.3438 16.9709 12.3423H17.1693C18.4068 12.3399 19.4099 11.336 19.4107 10.0985V9.90004C19.4084 8.66254 18.406 7.66024 17.1693 7.65784V7.65792ZM18.7709 10.0985C18.7701 10.9821 18.0529 11.6993 17.1693 11.7001H16.9709C16.5443 11.7024 16.1342 11.5345 15.8318 11.2345C15.5287 10.9337 15.3584 10.5251 15.3576 10.0985V9.90008C15.3592 9.0157 16.0756 8.2993 16.96 8.29774H17.1584C17.5849 8.29539 17.9951 8.46336 18.2982 8.76492C18.6006 9.0657 18.7709 9.47508 18.7709 9.90164V10.0985Z" fill="#43464E"/>
<path d="M9.81254 15.318H9.59848C8.3641 15.3235 7.36568 16.325 7.36328 17.5594V17.7578C7.36563 18.993 8.36406 19.9938 9.59848 20H9.81254C11.0469 19.9938 12.0453 18.993 12.0477 17.7578V17.5594C12.0454 16.325 11.047 15.3234 9.81254 15.318ZM11.4149 17.7586L11.4141 17.7578C11.4133 18.6422 10.6961 19.3586 9.81254 19.3602H9.59848C8.71488 19.3586 7.9977 18.6422 7.99692 17.7578V17.5594C7.9977 16.6758 8.71488 15.9586 9.59848 15.9578H9.81254C10.6961 15.9586 11.4133 16.6758 11.4141 17.5594L11.4149 17.7586Z" fill="#43464E"/>
</svg>
