<svg width="20" height="21" viewBox="0 0 20 21" fill="none" xmlns="http://www.w3.org/2000/svg">
<path fill-rule="evenodd" clip-rule="evenodd" d="M19.7875 10.6979C19.7875 9.98877 19.7239 9.30695 19.6057 8.6524H10.1875V12.5206H15.5693C15.3375 13.7706 14.633 14.8297 13.5739 15.5388V18.0479H16.8057C18.6966 16.307 19.7875 13.7433 19.7875 10.6979Z" fill="#4285F4"/>
<path fill-rule="evenodd" clip-rule="evenodd" d="M10.1874 20.4706C12.8874 20.4706 15.151 19.5751 16.8056 18.0478L13.5737 15.5387C12.6783 16.1387 11.5328 16.4933 10.1874 16.4933C7.58281 16.4933 5.37826 14.7342 4.59189 12.3705H1.25098V14.9615C2.89643 18.2296 6.27826 20.4706 10.1874 20.4706Z" fill="#34A853"/>
<path fill-rule="evenodd" clip-rule="evenodd" d="M4.59205 12.3705C4.39205 11.7705 4.27842 11.1296 4.27842 10.4705C4.27842 9.81144 4.39205 9.17053 4.59205 8.57053V5.97961H1.25114C0.573864 7.32962 0.1875 8.85689 0.1875 10.4705C0.1875 12.0842 0.573864 13.6114 1.25114 14.9615L4.59205 12.3705Z" fill="#FBBC05"/>
<path fill-rule="evenodd" clip-rule="evenodd" d="M10.1874 4.44786C11.6555 4.44786 12.9737 4.95241 14.0101 5.94332L16.8783 3.07513C15.1465 1.46149 12.8828 0.470581 10.1874 0.470581C6.27826 0.470581 2.89643 2.7115 1.25098 5.97968L4.59189 8.5706C5.37826 6.20696 7.58281 4.44786 10.1874 4.44786Z" fill="#EA4335"/>
</svg>
