<svg width="24" height="25" viewBox="0 0 24 25" fill="none" xmlns="http://www.w3.org/2000/svg">
<path d="M20.7751 5.68471C19.791 4.7027 18.458 4.15055 17.0679 4.14914C15.6777 4.14774 14.3435 4.69719 13.3576 5.67721L12.0001 6.94096L10.6426 5.67721C9.65732 4.69322 8.32154 4.14091 6.92908 4.14179C5.53663 4.14266 4.20155 4.69666 3.21755 5.6819C2.23356 6.66714 1.68125 8.00291 1.68213 9.39537C1.68301 10.7878 2.237 12.1229 3.22224 13.1069L11.5997 21.6063C11.6521 21.6593 11.7144 21.7014 11.7831 21.7301C11.8518 21.7588 11.9256 21.7736 12.0001 21.7736C12.0745 21.7736 12.1483 21.7588 12.217 21.7301C12.2857 21.7014 12.348 21.6593 12.4004 21.6063L20.7751 13.1106C21.2628 12.6231 21.6496 12.0443 21.9136 11.4072C22.1775 10.7701 22.3134 10.0873 22.3134 9.39768C22.3134 8.70808 22.1775 8.02524 21.9136 7.38816C21.6496 6.75108 21.2628 6.17224 20.7751 5.68471ZM19.9763 12.3175L12.0001 20.41L4.02099 12.3147C3.25191 11.5402 2.82111 10.4925 2.82297 9.40106C2.82483 8.30959 3.2592 7.26336 4.03092 6.49151C4.80264 5.71966 5.84881 5.28513 6.94027 5.2831C8.03174 5.28106 9.07952 5.71169 9.85412 6.48065C9.85867 6.48551 9.86369 6.48991 9.86912 6.49377L11.6166 8.12127C11.7207 8.21828 11.8577 8.27221 12.0001 8.27221C12.1424 8.27221 12.2794 8.21828 12.3835 8.12127L14.131 6.49284C14.1364 6.48897 14.1414 6.48457 14.146 6.47971C14.5288 6.09467 14.9838 5.78897 15.4849 5.58016C15.9861 5.37135 16.5236 5.26352 17.0665 5.26287C17.6094 5.26222 18.1471 5.36875 18.6488 5.57636C19.1505 5.78397 19.6062 6.08857 19.9899 6.47269C20.3736 6.85682 20.6777 7.31291 20.8847 7.8148C21.0918 8.3167 21.1977 8.85454 21.1964 9.39746C21.1952 9.94039 21.0867 10.4777 20.8774 10.9787C20.668 11.4796 20.3618 11.9342 19.9763 12.3166V12.3175Z" fill="white"/>
</svg>
