<svg width="80" height="66" viewBox="0 0 80 66" fill="none" xmlns="http://www.w3.org/2000/svg">
<path d="M61.5996 32.5229C19.3687 14.1632 21.0169 48.2009 25.5488 65.7355C17.5148 54.1833 13.1886 16.2262 54.3895 22.0022C50.8876 18.289 40.7933 12.1004 37.9092 22.0022L35.2312 22.8274C44.0894 1.57964 55.6257 12.1004 73.5481 25.9217L61.5996 32.5229Z" fill="black" stroke="black" stroke-width="0.283423"/>
<path d="M69.7882 19.0933C69.8754 19.1614 70.0014 19.1458 70.0695 19.0586C70.1375 18.9713 70.122 18.8454 70.0347 18.7773L69.7882 19.0933ZM60.3377 11.7195L69.7882 19.0933L70.0347 18.7773L60.5842 11.4035L60.3377 11.7195Z" fill="black"/>
<path d="M61.5152 10.0252C63.3986 8.76033 63.7599 6.24002 63.7061 5.07328C63.7043 5.03478 63.7296 5.00103 63.767 4.99155L64.4039 4.83002C64.4545 4.81721 64.5036 4.85571 64.5041 4.90786C64.5163 6.2783 64.6791 6.89247 64.9117 7.00776C65.2789 7.1898 65.9229 6.64457 66.3871 6.29337C66.4391 6.25403 66.5124 6.29134 66.5127 6.35653L66.5173 7.72376C66.5174 7.76803 66.4812 7.80392 66.4369 7.80532C65.3003 7.84119 64.9822 8.54996 64.9178 8.8113C64.5238 10.8166 67.1302 11.2086 67.1228 9.00425L67.1187 7.80189L69.1145 5.3904C69.1151 5.55072 69.3203 6.99287 69.5221 7.39298C69.8433 7.55221 71.2657 6.86849 71.9326 6.53224L66.2717 13.8675L61.5152 10.0252Z" fill="black"/>
<path d="M71.1014 17.5922C71.868 15.4569 74.2238 14.491 75.3683 14.2583C75.4061 14.2507 75.4327 14.2179 75.4327 14.1793L75.4338 13.5222C75.4339 13.4701 75.3846 13.4318 75.3339 13.4441C74.0019 13.7669 73.3666 13.759 73.198 13.5617C72.9318 13.2501 73.3033 12.4924 73.5305 11.9564C73.5559 11.8964 73.5018 11.8344 73.4386 11.8501L72.1116 12.1795C72.0686 12.1902 72.0427 12.2341 72.0521 12.2774C72.2949 13.3884 71.6853 13.8699 71.4476 13.9962C69.5992 14.868 68.5826 12.4362 70.722 11.9051L71.889 11.6154L73.74 9.09109C73.5844 9.12972 72.1358 9.28285 71.6986 9.18492C71.4657 8.91236 71.7694 7.26066 71.9326 6.53189L66.2718 13.8672L71.1014 17.5922Z" fill="black"/>
<circle cx="72.5711" cy="5.69817" r="0.601184" transform="rotate(38.7486 72.5711 5.69817)" fill="black"/>
<circle cx="76.1159" cy="13.4863" r="0.400789" transform="rotate(38.7486 76.1159 13.4863)" fill="black"/>
<circle cx="64.5505" cy="4.20454" r="0.400789" transform="rotate(38.7486 64.5505 4.20454)" fill="black"/>
<path d="M2.73389 38.7192H5.08229V48.1966C5.08229 49.9579 3.6635 51.9057 0 51.9057V51.3562C2.33509 51.1192 2.73389 49.8875 2.73389 48.1966V38.7192Z" fill="black"/>
<path d="M8.43774 40.9386H10.7157V48.5709C10.7157 50.5201 12.3644 51.3186 13.3038 51.2951C14.4545 51.2951 15.8166 50.0974 16.2862 48.3596V40.9386H18.5642V51.5064H16.2862V49.5807C15.7461 50.9898 14.4075 51.7882 13.022 51.9057C11.1902 52.07 8.43774 50.9898 8.43774 48.5005V40.9386Z" fill="black"/>
<path d="M28.484 51.5064H26.206V43.8741C26.206 42.0893 25.2246 41.2181 24.6578 41.6444C23.9708 42.1611 23.8626 42.606 23.3929 44.0855V51.5064H21.115V40.9386H23.3929V42.8643C24.1209 41.6431 24.3038 40.7508 25.7363 40.7508C26.9105 40.7508 27.9908 41.3848 28.3666 42.8643C29.212 41.6197 30.2453 40.9856 31.2316 40.7977C33.0164 40.4924 34.6603 41.784 34.6603 43.9446V51.5064H32.3823V43.8741C32.3823 42.2302 31.7717 41.5492 30.9968 41.5492C30.1279 41.5257 29.0711 42.5121 28.484 43.8506V51.5064Z" fill="black"/>
<path d="M36.414 48.7588C36.414 46.3399 38.8563 45.3067 41.7213 45.3067C42.5667 45.3067 43.4356 45.3771 44.3046 45.565V43.8976C44.3046 42.5355 42.966 41.3848 40.8524 41.3848C39.9835 41.3848 38.9737 41.5727 37.8699 42.0424V41.4083C39.2555 40.9621 40.5706 40.7508 41.7213 40.7508C44.6333 40.7508 46.5825 42.0659 46.5825 43.8506V49.5103C46.5825 50.4966 46.8173 51.0368 47.7567 51.0368V51.6239C45.9484 51.6239 44.3046 50.9663 44.3046 49.2755V48.2891C43.4591 51.0133 42.0266 52.0466 40.3827 52.0231C38.0109 51.9761 36.414 50.6375 36.414 48.7588ZM38.8563 48.7588C38.8563 50.4262 39.8191 51.5299 40.9698 51.436C42.144 51.342 43.5061 50.0269 44.3046 46.8096V46.2695C43.694 45.9877 43.0129 45.8703 42.3554 45.8703C40.5471 45.8703 38.8563 46.8801 38.8563 48.7588Z" fill="black"/>
<path d="M59.8022 51.5064H57.5242V43.8741C57.5242 42.1598 56.8197 41.4553 55.9273 41.4553C54.847 41.4788 52.5563 42.5355 51.8283 44.0855V51.5064H49.5503V40.9386H51.8283V43.0992C52.8381 41.5257 54.9175 40.9151 56.2796 40.7977C58.0878 40.6099 59.8022 41.5257 59.8022 43.9446V51.5064Z" fill="black"/>
<path d="M62.1025 48.6414C62.1025 46.2225 64.5448 45.1892 67.4099 45.1892C68.2553 45.1892 69.1242 45.2597 69.9931 45.4476V43.7802C69.9931 42.4181 68.6545 41.2674 66.541 41.2674C65.6721 41.2674 64.6622 41.4553 63.5585 41.925V41.2909C64.9441 40.8447 66.2592 40.6333 67.4099 40.6333C70.3219 40.6333 72.271 41.9484 72.271 43.7332V49.3929C72.271 50.3792 72.506 50.9193 73.4453 50.9193V51.5064C71.637 51.5064 69.9931 50.8489 69.9931 49.158V48.1717C69.1477 50.8959 67.7152 51.9291 66.0713 51.9057C63.6994 51.8587 62.1025 50.5201 62.1025 48.6414ZM64.5448 48.6414C64.5448 50.3087 65.5077 51.4125 66.6584 51.3186C67.8326 51.2246 69.1947 49.9095 69.9931 46.6922V46.1521C69.3825 45.8703 68.7015 45.7528 68.0439 45.7528C66.2357 45.7528 64.5448 46.7627 64.5448 48.6414Z" fill="black"/>
</svg>
