<svg width="80" height="66" viewBox="0 0 80 66" fill="none" xmlns="http://www.w3.org/2000/svg">
<path d="M61.8496 32.2582C19.6187 13.8986 21.2669 47.9363 25.7988 65.4708C17.7648 53.9187 13.4386 15.9615 54.6395 21.7376C51.1376 18.0244 41.0433 11.8357 38.1592 21.7376L35.4812 22.5628C44.3394 1.31499 55.8757 11.8357 73.7981 25.6571L61.8496 32.2582Z" fill="white" stroke="white" stroke-width="0.283423"/>
<path d="M70.0382 18.8287C70.1254 18.8967 70.2514 18.8812 70.3195 18.7939C70.3875 18.7067 70.372 18.5808 70.2847 18.5127L70.0382 18.8287ZM60.5877 11.4549L70.0382 18.8287L70.2847 18.5127L60.8342 11.1389L60.5877 11.4549Z" fill="white"/>
<path d="M61.7652 9.76052C63.6486 8.49568 64.0099 5.97537 63.9561 4.80864C63.9543 4.77013 63.9796 4.73638 64.017 4.7269L64.6539 4.56538C64.7045 4.55256 64.7536 4.59107 64.7541 4.64321C64.7663 6.01366 64.9291 6.62782 65.1617 6.74311C65.5289 6.92515 66.1729 6.37992 66.6371 6.02872C66.6891 5.98939 66.7624 6.02669 66.7627 6.09189L66.7673 7.45911C66.7674 7.50338 66.7312 7.53927 66.6869 7.54067C65.5503 7.57654 65.2322 8.28531 65.1678 8.54665C64.7738 10.5519 67.3802 10.9439 67.3728 8.7396L67.3687 7.53724L69.3645 5.12575C69.3651 5.28607 69.5703 6.72822 69.7721 7.12833C70.0933 7.28756 71.5157 6.60384 72.1826 6.2676L66.5217 13.6029L61.7652 9.76052Z" fill="white"/>
<path d="M71.3514 17.3276C72.118 15.1923 74.4738 14.2264 75.6183 13.9937C75.6561 13.986 75.6827 13.9532 75.6827 13.9147L75.6838 13.2576C75.6839 13.2054 75.6346 13.1672 75.5839 13.1795C74.2519 13.5022 73.6166 13.4944 73.448 13.297C73.1818 12.9854 73.5533 12.2277 73.7805 11.6918C73.8059 11.6318 73.7518 11.5698 73.6886 11.5855L72.3616 11.9149C72.3186 11.9256 72.2927 11.9695 72.3021 12.0127C72.5449 13.1237 71.9353 13.6053 71.6976 13.7315C69.8492 14.6033 68.8326 12.1715 70.972 11.6404L72.139 11.3507L73.99 8.82644C73.8344 8.86507 72.3858 9.0182 71.9486 8.92027C71.7157 8.64771 72.0194 6.99601 72.1826 6.26724L66.5218 13.6025L71.3514 17.3276Z" fill="white"/>
<circle cx="72.8211" cy="5.43353" r="0.601184" transform="rotate(38.7486 72.8211 5.43353)" fill="white"/>
<circle cx="76.3659" cy="13.2216" r="0.400789" transform="rotate(38.7486 76.3659 13.2216)" fill="white"/>
<circle cx="64.8005" cy="3.9399" r="0.400789" transform="rotate(38.7486 64.8005 3.9399)" fill="white"/>
<path d="M2.98389 38.4546H5.33229V47.932C5.33229 49.6933 3.9135 51.641 0.25 51.641V51.0916C2.58509 50.8545 2.98389 49.6228 2.98389 47.932V38.4546Z" fill="white"/>
<path d="M8.68774 40.674H10.9657V48.3063C10.9657 50.2555 12.6144 51.0539 13.5538 51.0304C14.7045 51.0304 16.0666 49.8327 16.5362 48.0949V40.674H18.8142V51.2418H16.5362V49.3161C15.9961 50.7251 14.6575 51.5236 13.272 51.641C11.4402 51.8054 8.68774 50.7251 8.68774 48.2358V40.674Z" fill="white"/>
<path d="M28.734 51.2418H26.456V43.6095C26.456 41.8247 25.4746 40.9534 24.9078 41.3798C24.2208 41.8964 24.1126 42.3413 23.6429 43.8208V51.2418H21.365V40.674H23.6429V42.5997C24.3709 41.3785 24.5538 40.4861 25.9863 40.4861C27.1605 40.4861 28.2408 41.1202 28.6166 42.5997C29.462 41.355 30.4953 40.7209 31.4816 40.5331C33.2664 40.2278 34.9103 41.5194 34.9103 43.6799V51.2418H32.6323V43.6095C32.6323 41.9656 32.0217 41.2846 31.2468 41.2846C30.3779 41.2611 29.3211 42.2474 28.734 43.586V51.2418Z" fill="white"/>
<path d="M36.664 48.4942C36.664 46.0753 39.1063 45.042 41.9713 45.042C42.8167 45.042 43.6856 45.1125 44.5546 45.3003V43.633C44.5546 42.2709 43.216 41.1202 41.1024 41.1202C40.2335 41.1202 39.2237 41.308 38.1199 41.7777V41.1437C39.5055 40.6975 40.8206 40.4861 41.9713 40.4861C44.8833 40.4861 46.8325 41.8012 46.8325 43.586V49.2456C46.8325 50.232 47.0673 50.7721 48.0067 50.7721V51.3592C46.1984 51.3592 44.5546 50.7017 44.5546 49.0108V48.0245C43.7091 50.7486 42.2766 51.7819 40.6327 51.7584C38.2609 51.7115 36.664 50.3729 36.664 48.4942ZM39.1063 48.4942C39.1063 50.1615 40.0691 51.2653 41.2198 51.1713C42.394 51.0774 43.7561 49.7623 44.5546 46.545V46.0048C43.944 45.723 43.2629 45.6056 42.6054 45.6056C40.7971 45.6056 39.1063 46.6154 39.1063 48.4942Z" fill="white"/>
<path d="M60.0522 51.2418H57.7742V43.6095C57.7742 41.8951 57.0697 41.1906 56.1773 41.1906C55.097 41.2141 52.8063 42.2709 52.0783 43.8208V51.2418H49.8003V40.674H52.0783V42.8345C53.0881 41.2611 55.1675 40.6505 56.5296 40.5331C58.3378 40.3452 60.0522 41.2611 60.0522 43.6799V51.2418Z" fill="white"/>
<path d="M62.3525 48.3767C62.3525 45.9579 64.7948 44.9246 67.6599 44.9246C68.5053 44.9246 69.3742 44.995 70.2431 45.1829V43.5155C70.2431 42.1535 68.9045 41.0028 66.791 41.0028C65.9221 41.0028 64.9122 41.1906 63.8085 41.6603V41.0262C65.1941 40.58 66.5092 40.3687 67.6599 40.3687C70.5719 40.3687 72.521 41.6838 72.521 43.4686V49.1282C72.521 50.1146 72.756 50.6547 73.6953 50.6547V51.2418C71.887 51.2418 70.2431 50.5842 70.2431 48.8934V47.9071C69.3977 50.6312 67.9652 51.6645 66.3213 51.641C63.9494 51.594 62.3525 50.2555 62.3525 48.3767ZM64.7948 48.3767C64.7948 50.0441 65.7577 51.1478 66.9084 51.0539C68.0826 50.96 69.4447 49.6449 70.2431 46.4276V45.8874C69.6325 45.6056 68.9515 45.4882 68.2939 45.4882C66.4857 45.4882 64.7948 46.498 64.7948 48.3767Z" fill="white"/>
</svg>
