<svg width="16" height="16" viewBox="0 0 16 16" fill="none" xmlns="http://www.w3.org/2000/svg">
<path d="M7.52447 1.26357C7.67415 0.80292 8.32585 0.802919 8.47553 1.26357L9.90837 5.6734C9.97531 5.87942 10.1673 6.0189 10.3839 6.0189H15.0207C15.505 6.0189 15.7064 6.6387 15.3146 6.9234L11.5633 9.64883C11.3881 9.77615 11.3148 10.0018 11.3817 10.2078L12.8145 14.6177C12.9642 15.0783 12.437 15.4614 12.0451 15.1767L8.29389 12.4513C8.11865 12.3239 7.88135 12.3239 7.70611 12.4513L3.95488 15.1767C3.56303 15.4614 3.03578 15.0783 3.18546 14.6177L4.6183 10.2078C4.68524 10.0018 4.61191 9.77615 4.43667 9.64883L0.685441 6.9234C0.293584 6.6387 0.494972 6.0189 0.979333 6.0189H5.6161C5.83272 6.0189 6.02469 5.87942 6.09163 5.6734L7.52447 1.26357Z" fill="white"/>
</svg>
